<svg width="358" height="680" viewBox="0 0 358 680" fill="none" xmlns="http://www.w3.org/2000/svg">
<rect y="140" width="358" height="540" fill="#202024"/>
<mask id="mask0_" style="mask-type:alpha" maskUnits="userSpaceOnUse" x="0" y="136" width="358" height="540">
<rect y="136" width="358" height="540" fill="#202024"/>
</mask>
<g mask="url(#mask0_)">
<path d="M358 197.492V-260.824L178.5 -364L-1 -260.824V197.492L178.5 300.674L358 197.492Z" fill="white"/>
<g style="mix-blend-mode:luminosity" opacity="0.4">
<path d="M0.800786 95.3496V198.159L90.1006 249.569L179.4 198.159V95.3496L90.1006 43.9399L0.800786 95.3496Z" fill="url(#paint0_linear_)"/>
<path d="M0.800786 -7.46505V95.3445L90.1006 146.754L179.4 95.3445V-7.46505L90.1006 -58.8747L0.800786 -7.46505Z" fill="url(#paint1_linear_)"/>
<path d="M179.4 198.159V95.3492L268.7 43.9395L358 95.3492V198.159L268.7 249.568L179.4 198.159Z" fill="url(#paint2_linear_)"/>
<path d="M358 -7.46505V95.3445L268.7 146.754L179.4 95.3445V-7.46505L268.7 -58.8747L358 -7.46505Z" fill="url(#paint3_linear_)"/>
<path d="M268.7 249.59V146.781L179.4 95.3711L90.1006 146.781L90.1006 249.59L179.4 301L268.7 249.59Z" fill="url(#paint4_linear_)"/>
</g>
</g>
<rect x="138" y="156" width="80" height="8" fill="#121214"/>
<rect x="146" width="64" height="158" fill="url(#paint5_linear_)"/>
<defs>
<linearGradient id="paint0_linear_" x1="90.1006" y1="244.84" x2="1.1853" y2="93.1039" gradientUnits="userSpaceOnUse">
<stop stop-color="#8257E5"/>
<stop offset="1" stop-color="#FF008E" stop-opacity="0"/>
</linearGradient>
<linearGradient id="paint1_linear_" x1="90.1006" y1="142.026" x2="1.18528" y2="-9.71074" gradientUnits="userSpaceOnUse">
<stop stop-color="#8257E5"/>
<stop offset="1" stop-color="#FF008E" stop-opacity="0"/>
</linearGradient>
<linearGradient id="paint2_linear_" x1="358" y1="203.937" x2="179.676" y2="96.328" gradientUnits="userSpaceOnUse">
<stop stop-color="#FF008E" stop-opacity="0"/>
<stop offset="1" stop-color="#FFCD1E"/>
</linearGradient>
<linearGradient id="paint3_linear_" x1="268.7" y1="142.026" x2="357.615" y2="-9.71073" gradientUnits="userSpaceOnUse">
<stop stop-color="#8257E5"/>
<stop offset="1" stop-color="#FF008E" stop-opacity="0"/>
</linearGradient>
<linearGradient id="paint4_linear_" x1="179.4" y1="100.099" x2="268.316" y2="251.836" gradientUnits="userSpaceOnUse">
<stop stop-color="#8257E5"/>
<stop offset="1" stop-color="#FF008E" stop-opacity="0"/>
</linearGradient>
<linearGradient id="paint5_linear_" x1="107.5" y1="4.93019e-08" x2="240" y2="158" gradientUnits="userSpaceOnUse">
<stop stop-color="#FF008E"/>
<stop offset="1" stop-color="#FFCD1E"/>
</linearGradient>
</defs>
</svg>
